<?xml version="1.0" encoding="utf-8"?>
<!-- Svg Vector Icons : http://www.onlinewebfonts.com/icon -->
<!DOCTYPE svg PUBLIC "-//W3C//DTD SVG 1.1//EN" "http://www.w3.org/Graphics/SVG/1.1/DTD/svg11.dtd">
<svg version="1.1" xmlns="http://www.w3.org/2000/svg" xmlns:xlink="http://www.w3.org/1999/xlink" x="0px" y="0px" viewBox="0 0 1000 1000" enable-background="new 0 0 1000 1000" xml:space="preserve">
<metadata> Svg Vector Icons : http://www.onlinewebfonts.com/icon </metadata>
<g><g transform="translate(0.000000,511.000000) scale(0.100000,-0.100000)"><path d="M6842.1,4986.7c-277.5-88.2-477.2-389-451.3-684.7c15.5-168.6,75.2-295.7,223-459.1l116.7-132.3l-658.8-658.8l-658.8-658.8h-845.5c-700.3,0-868.8-7.8-985.6-41.5c-127.1-38.9-181.5-83-627.6-526.5c-422.8-420.2-487.6-495.4-503.2-581l-15.6-98.6l749.5-752.1l746.9-749.5L3812.9-478c-64.8-70-923.3-990.7-1908.9-2048.9C755.1-3764,111.9-4474.7,104.1-4518.8c-31.1-153,121.9-300.8,272.3-261.9c41.5,10.4,894.8,785.8,2111.2,1919.2L4531.3-957.8l739.2-736.6c718.4-715.8,741.8-736.6,840.3-736.6c98.5,0,124.5,20.7,568,461.7c339.8,334.6,482.4,495.4,526.5,588.8c62.3,129.7,62.3,137.5,62.3,1011.5v881.8l666.6,666.6l666.6,666.5l129.7-119.3c173.8-155.6,326.8-223,510.9-223c490.2,0,806.6,513.5,588.7,954.4c-64.8,129.7-2295.3,2375.7-2453.5,2469.1C7252,4999.6,6979.6,5030.8,6842.1,4986.7z"/></g></g>
</svg>